<mxfile host="app.diagrams.net" agent="Mozilla/5.0 (Windows NT 10.0; Win64; x64) AppleWebKit/537.36 (KHTML, like Gecko) Chrome/131.0.0.0 Safari/537.36 OPR/116.0.0.0 (Edition std-2)" version="26.0.14">
  <diagram name="Página-1" id="ABBewzQh3SUwvmwRqsUn">
    <mxGraphModel dx="2851" dy="1865" grid="0" gridSize="10" guides="1" tooltips="1" connect="1" arrows="1" fold="1" page="1" pageScale="1" pageWidth="827" pageHeight="1169" math="0" shadow="0">
      <root>
        <mxCell id="0" />
        <mxCell id="1" parent="0" />
        <mxCell id="2eiazvORfNVIWzaz2Htl-2" value="" style="whiteSpace=wrap;html=1;aspect=fixed;" parent="1" vertex="1">
          <mxGeometry x="-1468" y="-1107" width="429" height="429" as="geometry" />
        </mxCell>
        <mxCell id="2eiazvORfNVIWzaz2Htl-5" value="Profissional da saúde" style="shape=umlActor;verticalLabelPosition=bottom;verticalAlign=top;html=1;outlineConnect=0;" parent="1" vertex="1">
          <mxGeometry x="-1597" y="-895" width="34" height="63" as="geometry" />
        </mxCell>
        <mxCell id="2eiazvORfNVIWzaz2Htl-14" value="" style="endArrow=none;html=1;rounded=0;" parent="1" target="b3ZHOl8kHnkcg64sI-Il-3" edge="1">
          <mxGeometry width="50" height="50" relative="1" as="geometry">
            <mxPoint x="-1558" y="-873" as="sourcePoint" />
            <mxPoint x="-1384.5000000000025" y="-878" as="targetPoint" />
          </mxGeometry>
        </mxCell>
        <mxCell id="2eiazvORfNVIWzaz2Htl-15" value="" style="endArrow=none;html=1;rounded=0;entryX=0;entryY=0.5;entryDx=0;entryDy=0;" parent="1" target="b3ZHOl8kHnkcg64sI-Il-2" edge="1">
          <mxGeometry width="50" height="50" relative="1" as="geometry">
            <mxPoint x="-1562" y="-896" as="sourcePoint" />
            <mxPoint x="-1384.4999999999989" y="-1006.5" as="targetPoint" />
          </mxGeometry>
        </mxCell>
        <mxCell id="2eiazvORfNVIWzaz2Htl-16" value="" style="endArrow=none;html=1;rounded=0;entryX=0;entryY=0.5;entryDx=0;entryDy=0;" parent="1" source="2eiazvORfNVIWzaz2Htl-5" target="b3ZHOl8kHnkcg64sI-Il-4" edge="1">
          <mxGeometry width="50" height="50" relative="1" as="geometry">
            <mxPoint x="-1555" y="-890" as="sourcePoint" />
            <mxPoint x="-1388.0000000000005" y="-731" as="targetPoint" />
          </mxGeometry>
        </mxCell>
        <mxCell id="2eiazvORfNVIWzaz2Htl-17" value="Sistema de gestão de vacinas entre usuários" style="text;html=1;align=center;verticalAlign=middle;whiteSpace=wrap;rounded=0;" parent="1" vertex="1">
          <mxGeometry x="-1372.5" y="-1103" width="288" height="30" as="geometry" />
        </mxCell>
        <mxCell id="b3ZHOl8kHnkcg64sI-Il-2" value="Cadastra vacina" style="ellipse;whiteSpace=wrap;html=1;" vertex="1" parent="1">
          <mxGeometry x="-1323.5" y="-1026" width="140" height="70" as="geometry" />
        </mxCell>
        <mxCell id="b3ZHOl8kHnkcg64sI-Il-3" value="Cadastra usuário" style="ellipse;whiteSpace=wrap;html=1;" vertex="1" parent="1">
          <mxGeometry x="-1323.5" y="-902" width="140" height="70" as="geometry" />
        </mxCell>
        <mxCell id="b3ZHOl8kHnkcg64sI-Il-4" value="Atualiza cartão de vacina do usuário" style="ellipse;whiteSpace=wrap;html=1;" vertex="1" parent="1">
          <mxGeometry x="-1310" y="-778" width="140" height="70" as="geometry" />
        </mxCell>
        <mxCell id="b3ZHOl8kHnkcg64sI-Il-6" value="Usuário" style="shape=umlActor;verticalLabelPosition=bottom;verticalAlign=top;html=1;outlineConnect=0;" vertex="1" parent="1">
          <mxGeometry x="-929" y="-895" width="34" height="63" as="geometry" />
        </mxCell>
        <mxCell id="b3ZHOl8kHnkcg64sI-Il-7" value="" style="endArrow=none;html=1;rounded=0;exitX=1;exitY=0.5;exitDx=0;exitDy=0;" edge="1" parent="1" source="b3ZHOl8kHnkcg64sI-Il-3" target="b3ZHOl8kHnkcg64sI-Il-6">
          <mxGeometry width="50" height="50" relative="1" as="geometry">
            <mxPoint x="-1148" y="-886" as="sourcePoint" />
            <mxPoint x="-910" y="-981" as="targetPoint" />
          </mxGeometry>
        </mxCell>
        <mxCell id="b3ZHOl8kHnkcg64sI-Il-8" value="" style="endArrow=none;html=1;rounded=0;exitX=1;exitY=0.5;exitDx=0;exitDy=0;" edge="1" parent="1" source="b3ZHOl8kHnkcg64sI-Il-4" target="b3ZHOl8kHnkcg64sI-Il-6">
          <mxGeometry width="50" height="50" relative="1" as="geometry">
            <mxPoint x="-1178" y="-775" as="sourcePoint" />
            <mxPoint x="-915" y="-797" as="targetPoint" />
          </mxGeometry>
        </mxCell>
        <mxCell id="b3ZHOl8kHnkcg64sI-Il-9" value="&amp;lt;&amp;lt;include&amp;gt;&amp;gt;" style="endArrow=open;endSize=12;dashed=1;html=1;rounded=0;exitX=0.544;exitY=0.989;exitDx=0;exitDy=0;exitPerimeter=0;entryX=0.447;entryY=0.029;entryDx=0;entryDy=0;entryPerimeter=0;" edge="1" parent="1" source="b3ZHOl8kHnkcg64sI-Il-3" target="b3ZHOl8kHnkcg64sI-Il-4">
          <mxGeometry x="-0.059" y="31" width="160" relative="1" as="geometry">
            <mxPoint x="-1333.5" y="-806" as="sourcePoint" />
            <mxPoint x="-1173.5" y="-806" as="targetPoint" />
            <Array as="points" />
            <mxPoint as="offset" />
          </mxGeometry>
        </mxCell>
      </root>
    </mxGraphModel>
  </diagram>
</mxfile>
